<svg xmlns="http://www.w3.org/2000/svg" viewBox="0 0 960 560" role="img" aria-labelledby="title desc">
  <title id="title">Campus lost and found desk</title>
  <desc id="desc">A campus desk with found items, a phone, keys, a student card, and a notice board.</desc>
  <defs>
    <linearGradient id="bg" x1="0" y1="0" x2="1" y2="1">
      <stop offset="0" stop-color="#eef4ff"/>
      <stop offset="1" stop-color="#f9fbff"/>
    </linearGradient>
    <linearGradient id="blue" x1="0" y1="0" x2="1" y2="1">
      <stop offset="0" stop-color="#0053db"/>
      <stop offset="1" stop-color="#1b74ff"/>
    </linearGradient>
    <filter id="shadow" x="-20%" y="-20%" width="140%" height="140%">
      <feDropShadow dx="0" dy="18" stdDeviation="20" flood-color="#163b8f" flood-opacity=".16"/>
    </filter>
  </defs>
  <rect width="960" height="560" rx="42" fill="url(#bg)"/>
  <circle cx="760" cy="128" r="88" fill="#dbe8ff"/>
  <circle cx="826" cy="218" r="32" fill="#bed4ff"/>
  <circle cx="126" cy="92" r="46" fill="#dbe8ff"/>

  <g filter="url(#shadow)">
    <rect x="146" y="88" width="360" height="260" rx="28" fill="#fff"/>
    <rect x="178" y="126" width="296" height="34" rx="17" fill="#e8efff"/>
    <rect x="178" y="188" width="132" height="110" rx="18" fill="#f4f7ff"/>
    <rect x="338" y="188" width="136" height="18" rx="9" fill="#d6e2ff"/>
    <rect x="338" y="224" width="104" height="18" rx="9" fill="#d6e2ff"/>
    <rect x="338" y="260" width="126" height="18" rx="9" fill="#d6e2ff"/>
    <path d="M213 252c31-43 48-43 78 0" fill="none" stroke="#0053db" stroke-width="14" stroke-linecap="round"/>
    <circle cx="252" cy="222" r="24" fill="#0053db"/>
  </g>

  <g filter="url(#shadow)">
    <rect x="518" y="132" width="236" height="300" rx="30" fill="#13213f"/>
    <rect x="548" y="172" width="176" height="206" rx="18" fill="#f8fbff"/>
    <rect x="586" y="396" width="98" height="12" rx="6" fill="#4f6388"/>
    <rect x="580" y="204" width="112" height="18" rx="9" fill="#d6e2ff"/>
    <rect x="580" y="238" width="78" height="18" rx="9" fill="#d6e2ff"/>
    <rect x="580" y="272" width="132" height="54" rx="14" fill="#e8efff"/>
    <circle cx="692" cy="354" r="24" fill="url(#blue)"/>
    <path d="m681 354 8 8 18-20" fill="none" stroke="#fff" stroke-width="7" stroke-linecap="round" stroke-linejoin="round"/>
  </g>

  <g filter="url(#shadow)">
    <path d="M122 400h704c22 0 40 18 40 40v20H82v-20c0-22 18-40 40-40Z" fill="#fff"/>
    <rect x="82" y="454" width="784" height="34" rx="17" fill="#d8e4ff"/>
  </g>

  <g transform="translate(184 344)" filter="url(#shadow)">
    <rect x="0" y="0" width="138" height="78" rx="18" fill="#facc15"/>
    <rect x="20" y="24" width="78" height="10" rx="5" fill="#7c5b00" opacity=".55"/>
    <rect x="20" y="46" width="98" height="10" rx="5" fill="#7c5b00" opacity=".35"/>
  </g>

  <g transform="translate(352 356)" filter="url(#shadow)">
    <circle cx="34" cy="34" r="26" fill="#fff"/>
    <circle cx="34" cy="34" r="14" fill="none" stroke="#0053db" stroke-width="10"/>
    <path d="M58 52h54" stroke="#0053db" stroke-width="14" stroke-linecap="round"/>
    <path d="M94 52v22M116 52v18" stroke="#0053db" stroke-width="10" stroke-linecap="round"/>
  </g>

  <g transform="translate(676 346)" filter="url(#shadow)">
    <rect x="0" y="0" width="118" height="82" rx="20" fill="#fff"/>
    <rect x="16" y="18" width="42" height="42" rx="12" fill="url(#blue)"/>
    <rect x="70" y="22" width="30" height="8" rx="4" fill="#bed4ff"/>
    <rect x="70" y="42" width="28" height="8" rx="4" fill="#bed4ff"/>
  </g>
</svg>
