<svg xmlns="http://www.w3.org/2000/svg" viewBox="0 0 96 96" role="img" aria-labelledby="title">
  <title id="title">Campus Found basket logo</title>
  <defs>
    <linearGradient id="basket" x1="20" y1="34" x2="76" y2="88" gradientUnits="userSpaceOnUse">
      <stop stop-color="#fde68a"/>
      <stop offset="0.48" stop-color="#fbbf24"/>
      <stop offset="1" stop-color="#d97706"/>
    </linearGradient>
    <linearGradient id="blue" x1="18" y1="14" x2="80" y2="72" gradientUnits="userSpaceOnUse">
      <stop stop-color="#60a5fa"/>
      <stop offset="1" stop-color="#0053db"/>
    </linearGradient>
  </defs>
  <circle cx="48" cy="48" r="44" fill="#eff6ff"/>
  <path d="M27 45c2.8-14.4 11-23 21-23s18.2 8.6 21 23" fill="none" stroke="#92400e" stroke-width="6" stroke-linecap="round"/>
  <path d="M21 41h54l-6 35.5A8 8 0 0 1 61.1 83H34.9a8 8 0 0 1-7.9-6.5L21 41Z" fill="url(#basket)" stroke="#92400e" stroke-width="4" stroke-linejoin="round"/>
  <path d="M26 53h44M29 65h38M34 42l3 40M48 42v40M62 42l-3 40" fill="none" stroke="#fef3c7" stroke-width="3" stroke-linecap="round" opacity=".85"/>
  <path d="M29 34h26a5 5 0 0 1 5 5v23H34a5 5 0 0 1-5-5V34Z" fill="url(#blue)" stroke="#1e3a8a" stroke-width="3" stroke-linejoin="round"/>
  <path d="M37 44h15M37 52h10" fill="none" stroke="#bfdbfe" stroke-width="3" stroke-linecap="round"/>
  <path d="M61 48l6-6 13 13-6 6-4-4-11 11a5 5 0 0 1-7-7l11-11-2-2Z" fill="#f8fafc" stroke="#334155" stroke-width="3" stroke-linejoin="round"/>
  <circle cx="22" cy="25" r="4" fill="#fbbf24"/>
  <path d="M76 22l2.4 5 5 2.4-5 2.4-2.4 5-2.4-5-5-2.4 5-2.4 2.4-5Z" fill="#2563eb"/>
</svg>
